<!-- icon666.com - MILLIONS vector ICONS FREE --><svg version="1.1" id="Capa_1" xmlns="http://www.w3.org/2000/svg" xmlns:xlink="http://www.w3.org/1999/xlink" x="0px" y="0px" viewBox="0 0 512 512" style="enable-background:new 0 0 512 512;" xml:space="preserve"><path style="fill:#E2C8BA;" d="M50.069,450.792H461.93c9.047,0,16.38-7.334,16.38-16.382v-43.049H33.689v43.049 C33.689,443.458,41.023,450.792,50.069,450.792z"></path><polygon style="fill:#BA7052;" points="222.32,450.792 202.376,502 309.624,502 289.68,450.792 "></polygon><g><path style="fill:#FFF2E9;" d="M78,107.395H50.069c-9.046,0-16.38,7.334-16.38,16.382v30.281H77"></path><path style="fill:#FFF2E9;" d="M432.144,154.058h46.167v-30.281c0-9.047-7.334-16.382-16.38-16.382H433"></path></g><polyline style="fill:#56BFA1;" points="77,154.058 33.689,154.058 33.689,391.361 478.311,391.361 478.311,154.058 429.806,154.058 "></polyline><path d="M416.09,362.87c-0.65,0-1.31-0.07-1.95-0.2s-1.27-0.32-1.87-0.57c-0.609-0.25-1.189-0.56-1.729-0.92 c-0.55-0.36-1.06-0.78-1.521-1.24c-0.46-0.46-0.88-0.97-1.239-1.52c-0.36-0.54-0.671-1.12-0.921-1.73 c-0.25-0.6-0.439-1.23-0.569-1.87c-0.13-0.64-0.2-1.3-0.2-1.95c0-0.65,0.07-1.31,0.2-1.96c0.13-0.63,0.319-1.26,0.569-1.87 c0.25-0.6,0.561-1.18,0.921-1.72c0.359-0.55,0.779-1.06,1.239-1.52c0.46-0.46,0.971-0.88,1.521-1.25c0.54-0.36,1.12-0.66,1.729-0.91 c0.601-0.25,1.23-0.45,1.87-0.579c1.29-0.26,2.62-0.25,3.91,0c0.63,0.13,1.26,0.329,1.87,0.579c0.6,0.24,1.18,0.55,1.72,0.91 c0.55,0.37,1.061,0.79,1.521,1.25s0.88,0.97,1.25,1.52c0.359,0.54,0.67,1.12,0.92,1.72c0.25,0.61,0.439,1.24,0.569,1.87 c0.131,0.65,0.19,1.31,0.19,1.96s-0.06,1.31-0.19,1.95s-0.319,1.27-0.569,1.87c-0.25,0.61-0.561,1.19-0.92,1.73 c-0.37,0.55-0.79,1.06-1.25,1.52s-0.971,0.88-1.521,1.24c-0.54,0.36-1.12,0.67-1.72,0.92c-0.61,0.25-1.24,0.44-1.87,0.57 C417.399,362.8,416.74,362.87,416.09,362.87z"></path><path d="M275.598,430.284h-39.196c-5.523,0-10-4.477-10-10s4.477-10,10-10h39.196c5.522,0,10,4.477,10,10 S281.12,430.284,275.598,430.284z"></path><polyline style="fill:#A15443;" points="120.704,30.883 82.194,30.883 82.194,308.425 256,308.425 256,246.063 "></polyline><polyline style="fill:#BA7052;" points="256.005,246.068 256.005,246.069 256,246.063 256,308.425 429.806,308.425 429.806,30.883 391.295,30.883 "></polyline><polyline style="fill:#E2C8BA;" points="120.704,230.56 120.704,268.371 391.295,268.371 391.295,230.56 "></polyline><path style="fill:#FFF2E9;" d="M256.005,246.069c-9.203-9.744-22.137-15.508-36.178-15.508h-99.123V10.009 c0-0.005,0.004-0.009,0.009-0.009h99.113c19.98,0,36.178,16.199,36.178,36.182"></path><path style="fill:#E2C8BA;" d="M256.005,173.209V46.182c0-19.983,16.197-36.182,36.178-36.182h99.105 c0.004,0,0.008,0.004,0.008,0.008V230.56h-99.113c-14.041,0-26.974,5.763-36.178,15.508"></path><path d="M461.931,97.395h-22.124V30.883c0-5.523-4.478-10-10-10h-28.511V10.008C401.296,4.485,396.81,0,391.287,0h-99.105 c-14.641,0-27.712,6.85-36.178,17.513C247.539,6.85,234.468,0,219.827,0h-99.113c-5.523,0-10.009,4.486-10.009,10.009v10.875H82.194 c-5.523,0-10,4.477-10,10v66.512H50.069c-14.546,0-26.38,11.835-26.38,26.382V434.41c0,14.547,11.834,26.382,26.38,26.382h157.624 L195.539,492h-67.63c-5.523,0-10,4.477-10,10s4.477,10,10,10H384.09c5.522,0,10-4.477,10-10s-4.478-10-10-10h-67.63l-12.154-31.208 h157.625c14.546,0,26.38-11.835,26.38-26.382V123.777C488.311,109.23,476.477,97.395,461.931,97.395z M43.689,362.869H374.67 c5.523,0,10-4.477,10-10s-4.477-10-10-10H43.689V164.058h28.504v144.368c0,5.523,4.477,10,10,10h347.613c5.522,0,10-4.477,10-10 V164.058h28.504v217.304H43.689V362.869z M461.931,117.395c3.518,0,6.38,2.863,6.38,6.382v20.281h-28.504v-26.663H461.931z M419.807,40.883v257.542H266v-20.054h125.295c5.522,0,10-4.477,10-10v-37.735c0-0.025,0.001-0.051,0.001-0.076V40.883H419.807z M130.705,240.561h89.122c9.815,0,18.974,3.433,26.173,9.74v8.071H130.705V240.561z M266,250.309 c7.201-6.312,16.364-9.748,26.183-9.748h89.112v17.811H266V250.309z M130.705,20h89.122c14.435,0,26.178,11.745,26.178,26.182 v127.027c0,5.523,4.477,10,10,10c5.522,0,10-4.477,10-10V46.182c0-14.437,11.743-26.182,26.178-26.182h89.113v200.561h-89.113 c-13.125,0-25.875,4.34-36.178,12.13c-10.303-7.79-23.053-12.13-36.177-12.13h-89.122L130.705,20L130.705,20z M92.194,40.883h18.511 v227.488c0,5.523,4.477,10,10,10H246v20.054H92.194V40.883z M43.689,123.777c0-3.519,2.862-6.382,6.38-6.382h22.124v26.663H43.689 V123.777z M294.997,492h-77.995l12.154-31.208h53.686L294.997,492z M468.311,434.41c0,3.519-2.862,6.382-6.38,6.382H50.069 c-3.518,0-6.38-2.863-6.38-6.382v-33.049H468.31v33.049H468.311z"></path></svg>